G04 #@! TF.GenerationSoftware,KiCad,Pcbnew,(5.1.0)-1*
G04 #@! TF.CreationDate,2020-02-13T11:59:40+01:00*
G04 #@! TF.ProjectId,Thermostat,54686572-6d6f-4737-9461-742e6b696361,rev?*
G04 #@! TF.SameCoordinates,Original*
G04 #@! TF.FileFunction,Copper,L2,Bot*
G04 #@! TF.FilePolarity,Positive*
%FSLAX46Y46*%
G04 Gerber Fmt 4.6, Leading zero omitted, Abs format (unit mm)*
G04 Created by KiCad (PCBNEW (5.1.0)-1) date 2020-02-13 11:59:40*
%MOMM*%
%LPD*%
G04 APERTURE LIST*
%ADD10O,3.960000X1.980000*%
%ADD11R,3.960000X1.980000*%
%ADD12O,1.400000X1.400000*%
%ADD13C,1.400000*%
%ADD14O,1.700000X1.700000*%
%ADD15R,1.700000X1.700000*%
%ADD16O,1.800000X1.800000*%
%ADD17R,1.800000X1.800000*%
%ADD18C,3.000000*%
%ADD19C,2.500000*%
%ADD20O,1.980000X3.960000*%
%ADD21R,1.980000X3.960000*%
%ADD22R,1.500000X1.050000*%
%ADD23O,1.500000X1.050000*%
%ADD24C,2.000000*%
%ADD25C,1.000000*%
%ADD26C,0.800000*%
%ADD27C,0.350000*%
%ADD28C,0.500000*%
%ADD29C,0.250000*%
G04 APERTURE END LIST*
D10*
X127508000Y-71708000D03*
D11*
X127508000Y-76708000D03*
D12*
X120396000Y-56896000D03*
D13*
X120396000Y-64516000D03*
D14*
X94996000Y-48768000D03*
X94996000Y-51308000D03*
X97536000Y-48768000D03*
X97536000Y-51308000D03*
X100076000Y-48768000D03*
X100076000Y-51308000D03*
X102616000Y-48768000D03*
X102616000Y-51308000D03*
X105156000Y-48768000D03*
X105156000Y-51308000D03*
X107696000Y-48768000D03*
X107696000Y-51308000D03*
X110236000Y-48768000D03*
X110236000Y-51308000D03*
X112776000Y-48768000D03*
X112776000Y-51308000D03*
X115316000Y-48768000D03*
X115316000Y-51308000D03*
X117856000Y-48768000D03*
X117856000Y-51308000D03*
X120396000Y-48768000D03*
X120396000Y-51308000D03*
X122936000Y-48768000D03*
X122936000Y-51308000D03*
X125476000Y-48768000D03*
X125476000Y-51308000D03*
X128016000Y-48768000D03*
X128016000Y-51308000D03*
X130556000Y-48768000D03*
X130556000Y-51308000D03*
X133096000Y-48768000D03*
X133096000Y-51308000D03*
X135636000Y-48768000D03*
X135636000Y-51308000D03*
X138176000Y-48768000D03*
X138176000Y-51308000D03*
X140716000Y-48768000D03*
X140716000Y-51308000D03*
X143256000Y-48768000D03*
D15*
X143256000Y-51308000D03*
D14*
X140716000Y-57912000D03*
X138176000Y-57912000D03*
X135636000Y-57912000D03*
D15*
X133096000Y-57912000D03*
D14*
X99568000Y-59436000D03*
X102108000Y-59436000D03*
X104648000Y-59436000D03*
X107188000Y-59436000D03*
X109728000Y-59436000D03*
D15*
X112268000Y-59436000D03*
D14*
X127000000Y-37592000D03*
X124460000Y-37592000D03*
X121920000Y-37592000D03*
X119380000Y-37592000D03*
X116840000Y-37592000D03*
X114300000Y-37592000D03*
X111760000Y-37592000D03*
D15*
X109220000Y-37592000D03*
D16*
X147066000Y-62738000D03*
D17*
X147066000Y-70358000D03*
D18*
X152781000Y-66167000D03*
D19*
X154731000Y-60217000D03*
D18*
X166981000Y-60167000D03*
X166931000Y-72217000D03*
D19*
X154731000Y-72217000D03*
D20*
X157052000Y-50800000D03*
D21*
X162052000Y-50800000D03*
D22*
X146812000Y-76708000D03*
D23*
X146812000Y-79248000D03*
X146812000Y-77978000D03*
D13*
X132080000Y-54356000D03*
X124460000Y-41148000D03*
X114300000Y-54356000D03*
X115316000Y-43688000D03*
X118364000Y-54356000D03*
X112268000Y-44196000D03*
D24*
X162052000Y-50800000D02*
X162052000Y-60452000D01*
X166931000Y-65331000D02*
X166931000Y-72217000D01*
X162052000Y-60452000D02*
X166931000Y-65331000D01*
X154902320Y-66167000D02*
X158077320Y-62992000D01*
X152781000Y-66167000D02*
X154902320Y-66167000D01*
X158077320Y-62992000D02*
X158077320Y-55969320D01*
X158077320Y-55969320D02*
X156972000Y-54864000D01*
X157052000Y-54784000D02*
X157052000Y-50800000D01*
X156972000Y-54864000D02*
X157052000Y-54784000D01*
D25*
X149587000Y-60217000D02*
X154731000Y-60217000D01*
X147066000Y-62738000D02*
X149587000Y-60217000D01*
X149587000Y-60217000D02*
X149587000Y-52051000D01*
X146304000Y-48768000D02*
X143256000Y-48768000D01*
X149587000Y-52051000D02*
X146304000Y-48768000D01*
X127508000Y-70218000D02*
X132194000Y-65532000D01*
X127508000Y-71708000D02*
X127508000Y-70218000D01*
X144272000Y-65532000D02*
X147066000Y-62738000D01*
X132194000Y-65532000D02*
X144272000Y-65532000D01*
D26*
X109728000Y-59436000D02*
X109728000Y-60960000D01*
X109728000Y-60960000D02*
X108204000Y-62484000D01*
X108204000Y-62484000D02*
X97028000Y-62484000D01*
X94996000Y-60452000D02*
X94996000Y-51308000D01*
X97028000Y-62484000D02*
X94996000Y-60452000D01*
D25*
X111760000Y-42164000D02*
X108712000Y-45212000D01*
X111760000Y-37592000D02*
X111760000Y-42164000D01*
X92964000Y-51308000D02*
X94996000Y-51308000D01*
X108712000Y-45212000D02*
X94488000Y-45212000D01*
X94488000Y-45212000D02*
X92456000Y-47244000D01*
X92456000Y-47244000D02*
X92456000Y-50800000D01*
X92456000Y-50800000D02*
X92964000Y-51308000D01*
X166624000Y-79248000D02*
X146812000Y-79248000D01*
X172212000Y-73660000D02*
X166624000Y-79248000D01*
X172212000Y-54864000D02*
X172212000Y-73660000D01*
X111760000Y-37592000D02*
X111760000Y-35052000D01*
X112776000Y-34036000D02*
X136144000Y-34036000D01*
X136144000Y-34036000D02*
X146812000Y-44704000D01*
X111760000Y-35052000D02*
X112776000Y-34036000D01*
X146812000Y-44704000D02*
X162052000Y-44704000D01*
X162052000Y-44704000D02*
X172212000Y-54864000D01*
X127508000Y-78740000D02*
X127508000Y-76708000D01*
X146812000Y-79248000D02*
X128016000Y-79248000D01*
X128016000Y-79248000D02*
X127508000Y-78740000D01*
D26*
X109728000Y-57404000D02*
X109728000Y-59436000D01*
X110744000Y-56388000D02*
X109728000Y-57404000D01*
X135636000Y-56388000D02*
X135128000Y-55880000D01*
X135636000Y-57912000D02*
X135636000Y-56388000D01*
X135128000Y-55880000D02*
X124968000Y-55880000D01*
X117348000Y-56388000D02*
X110744000Y-56388000D01*
X124968000Y-55880000D02*
X122428000Y-58420000D01*
X122428000Y-58420000D02*
X119380000Y-58420000D01*
X119380000Y-58420000D02*
X117348000Y-56388000D01*
X120396000Y-71628000D02*
X120396000Y-64516000D01*
X122936000Y-74168000D02*
X120396000Y-71628000D01*
X130556000Y-74168000D02*
X122936000Y-74168000D01*
X146812000Y-77978000D02*
X134366000Y-77978000D01*
X134366000Y-77978000D02*
X130556000Y-74168000D01*
X140716000Y-57912000D02*
X140716000Y-56709919D01*
X140716000Y-56709919D02*
X140716000Y-51308000D01*
X138176000Y-57912000D02*
X138176000Y-51308000D01*
D27*
X133096000Y-57912000D02*
X133096000Y-59112000D01*
D25*
X112268000Y-61468000D02*
X112268000Y-60960000D01*
X112268000Y-61468000D02*
X109220000Y-64516000D01*
X109220000Y-64516000D02*
X96012000Y-64516000D01*
X96012000Y-64516000D02*
X90424000Y-58928000D01*
X90424000Y-58928000D02*
X90424000Y-43688000D01*
X96520000Y-37592000D02*
X109220000Y-37592000D01*
X90424000Y-43688000D02*
X96520000Y-37592000D01*
D28*
X132588000Y-59944000D02*
X133096000Y-59436000D01*
D25*
X114126000Y-59944000D02*
X132588000Y-59944000D01*
X112268000Y-59436000D02*
X113618000Y-59436000D01*
X113618000Y-59436000D02*
X114126000Y-59944000D01*
D28*
X133096000Y-57912000D02*
X133096000Y-59436000D01*
D25*
X133096000Y-59262000D02*
X133778000Y-59944000D01*
D28*
X133096000Y-57912000D02*
X133096000Y-59262000D01*
D25*
X133778000Y-59944000D02*
X142240000Y-59944000D01*
X142240000Y-59944000D02*
X143256000Y-58928000D01*
X143256000Y-58928000D02*
X143256000Y-51308000D01*
X112268000Y-60960000D02*
X112268000Y-59436000D01*
D27*
X133096000Y-59112000D02*
X133096000Y-57912000D01*
D25*
X133096000Y-59112000D02*
X133096000Y-58928000D01*
D26*
X127000000Y-38794081D02*
X129032000Y-40826081D01*
X127000000Y-37592000D02*
X127000000Y-38794081D01*
X129032000Y-40826081D02*
X129032000Y-42672000D01*
X129032000Y-42672000D02*
X125984000Y-45720000D01*
X125984000Y-45720000D02*
X123444000Y-45720000D01*
X122936000Y-46228000D02*
X122936000Y-48768000D01*
X123444000Y-45720000D02*
X122936000Y-46228000D01*
X130556000Y-51308000D02*
X130556000Y-52832000D01*
X130556000Y-52832000D02*
X132080000Y-54356000D01*
X124460000Y-37592000D02*
X124460000Y-41148000D01*
D28*
X124460000Y-41148000D02*
X124460000Y-41148000D01*
X132080000Y-54356000D02*
X132080000Y-54356000D01*
D26*
X121920000Y-37592000D02*
X121920000Y-43688000D01*
X121920000Y-43688000D02*
X117856000Y-47752000D01*
D28*
X117856000Y-47752000D02*
X117856000Y-48768000D01*
X115316000Y-46736000D02*
X115316000Y-48768000D01*
D26*
X119380000Y-37592000D02*
X119380000Y-42672000D01*
X119380000Y-42672000D02*
X115316000Y-46736000D01*
X115316000Y-51308000D02*
X115316000Y-53340000D01*
X116840000Y-37592000D02*
X116840000Y-42164000D01*
X115316000Y-53340000D02*
X114300000Y-54356000D01*
X116840000Y-42164000D02*
X115316000Y-43688000D01*
D28*
X116840000Y-38794081D02*
X116840000Y-42164000D01*
X115316000Y-43688000D02*
X115316000Y-43688000D01*
X114300000Y-54356000D02*
X114300000Y-54356000D01*
D26*
X120396000Y-51308000D02*
X120396000Y-52832000D01*
X120396000Y-52832000D02*
X118872000Y-54356000D01*
D28*
X118872000Y-54356000D02*
X118364000Y-54356000D01*
D26*
X114300000Y-37592000D02*
X114300000Y-42164000D01*
X114300000Y-42164000D02*
X112268000Y-44196000D01*
D28*
X112268000Y-44196000D02*
X112268000Y-44196000D01*
X118364000Y-54356000D02*
X118364000Y-54356000D01*
D26*
X99568000Y-59436000D02*
X99568000Y-58233919D01*
X100076000Y-57725919D02*
X100076000Y-51308000D01*
X99568000Y-58233919D02*
X100076000Y-57725919D01*
X102108000Y-59436000D02*
X102108000Y-57912000D01*
X102616000Y-57404000D02*
X102616000Y-51308000D01*
X102108000Y-57912000D02*
X102616000Y-57404000D01*
D28*
X104648000Y-51816000D02*
X105156000Y-51308000D01*
D26*
X104648000Y-59436000D02*
X104648000Y-51816000D01*
D28*
X107188000Y-51816000D02*
X107696000Y-51308000D01*
D26*
X107188000Y-59436000D02*
X107188000Y-51816000D01*
X128016000Y-52324000D02*
X128016000Y-51308000D01*
X126492000Y-53848000D02*
X128016000Y-52324000D01*
X120396000Y-56896000D02*
X123444000Y-53848000D01*
X123444000Y-53848000D02*
X126492000Y-53848000D01*
D25*
X152963234Y-72217000D02*
X154731000Y-72217000D01*
X147066000Y-71508000D02*
X147775000Y-72217000D01*
D29*
X147066000Y-70358000D02*
X147066000Y-71508000D01*
D28*
X146812000Y-70612000D02*
X147066000Y-70358000D01*
D25*
X146812000Y-76708000D02*
X146812000Y-70612000D01*
X147775000Y-72217000D02*
X152963234Y-72217000D01*
M02*
