M48
; DRILL file {KiCad (5.1.0)-1} date 13/02/20 11:59:49
; FORMAT={-:-/ absolute / inch / decimal}
; #@! TF.CreationDate,2020-02-13T11:59:49+01:00
; #@! TF.GenerationSoftware,Kicad,Pcbnew,(5.1.0)-1
; #@! TF.FileFunction,Plated,1,2,PTH
FMAT,2
INCH
T1C0.0276
T2C0.0295
T3C0.0315
T4C0.0354
T5C0.0394
T6C0.0512
T7C0.0520
%
G90
G05
T1
X4.74Y-2.24
X4.74Y-2.54
T2
X5.78Y-3.02
X5.78Y-3.07
X5.78Y-3.12
T3
X4.42Y-1.74
X4.5Y-2.14
X4.54Y-1.72
X4.66Y-2.14
X4.9Y-1.62
X5.2Y-2.14
T4
X5.79Y-2.47
X5.79Y-2.77
T5
X5.24Y-2.28
X5.34Y-2.28
X5.44Y-2.28
X5.54Y-2.28
X3.74Y-1.92
X3.74Y-2.02
X3.84Y-1.92
X3.84Y-2.02
X3.94Y-1.92
X3.94Y-2.02
X4.04Y-1.92
X4.04Y-2.02
X4.14Y-1.92
X4.14Y-2.02
X4.24Y-1.92
X4.24Y-2.02
X4.34Y-1.92
X4.34Y-2.02
X4.44Y-1.92
X4.44Y-2.02
X4.54Y-1.92
X4.54Y-2.02
X4.64Y-1.92
X4.64Y-2.02
X4.74Y-1.92
X4.74Y-2.02
X4.84Y-1.92
X4.84Y-2.02
X4.94Y-1.92
X4.94Y-2.02
X5.04Y-1.92
X5.04Y-2.02
X5.14Y-1.92
X5.14Y-2.02
X5.24Y-1.92
X5.24Y-2.02
X5.34Y-1.92
X5.34Y-2.02
X5.44Y-1.92
X5.44Y-2.02
X5.54Y-1.92
X5.54Y-2.02
X5.64Y-1.92
X5.64Y-2.02
X3.92Y-2.34
X4.02Y-2.34
X4.12Y-2.34
X4.22Y-2.34
X4.32Y-2.34
X4.42Y-2.34
X4.3Y-1.48
X4.4Y-1.48
X4.5Y-1.48
X4.6Y-1.48
X4.7Y-1.48
X4.8Y-1.48
X4.9Y-1.48
X5.0Y-1.48
X6.0918Y-2.3707
X6.0918Y-2.8432
T6
X6.015Y-2.605
X6.5721Y-2.8432
X6.5741Y-2.3688
T7
X5.02Y-2.8231
X5.02Y-3.02
X6.1831Y-2.0
X6.38Y-2.0
T0
M30
